<?xml version="1.0" encoding="UTF-8"?>
<svg id="Layer_1" data-name="Layer 1" xmlns="http://www.w3.org/2000/svg" viewBox="0 0 200 170.09">
  <defs>
    <style>
      .cls-1 {
        fill: #D6FFF6;
        stroke-width: 0px;
      }
    </style>
  </defs>
  <path class="cls-1" d="m181.37,66.4c1.03-4.14,1.58-8.47,1.58-12.93,0-29.53-23.94-53.47-53.47-53.47-12.86,0-24.65,4.54-33.87,12.1-.84-.06-1.69-.1-2.55-.1-9.18,0-17.54,3.54-23.79,9.32-2.61-.34-5.27-.53-7.98-.53C27.44,20.78,0,48.22,0,82.07c0,17.41,7.27,33.12,18.93,44.28,1.09,18.37,16.33,32.93,34.97,32.93,3.09,0,6.08-.4,8.94-1.15,9.2,7.48,20.93,11.97,33.71,11.97s24.69-4.55,33.92-12.14c5.07,1.6,10.47,2.46,16.06,2.46,29.53,0,53.47-23.94,53.47-53.47,0-16.22-7.23-30.74-18.63-40.55Z"/>
</svg>